<svg xmlns="http://www.w3.org/2000/svg" width="1400" height="760" viewBox="0 0 1400 760" role="img" aria-labelledby="title desc">
  <title id="title">CloudWatch Metrics Preview</title>
  <desc id="desc">Preview chart showing desired and running worker counts across a burst window.</desc>
  <defs>
    <linearGradient id="bg" x1="0" y1="0" x2="0" y2="1">
      <stop offset="0%" stop-color="#0b1220"/>
      <stop offset="100%" stop-color="#05070d"/>
    </linearGradient>
  </defs>
  <rect x="0" y="0" width="1400" height="760" fill="url(#bg)"/>
  <rect x="48" y="48" width="1304" height="664" rx="12" fill="#0b1018" stroke="#1f2937"/>

  <text x="84" y="102" fill="#e5e7eb" font-family="monospace" font-size="30" font-weight="700">
    CloudWatch Metrics Preview (Recruiter Snapshot)
  </text>
  <text x="84" y="134" fill="#9ca3af" font-family="monospace" font-size="18">
    DesiredTaskCount vs RunningTaskCount during queue-depth burst + DLQ replay
  </text>

  <g stroke="#1f2937" stroke-width="1">
    <line x1="120" y1="620" x2="1260" y2="620"/>
    <line x1="120" y1="520" x2="1260" y2="520"/>
    <line x1="120" y1="420" x2="1260" y2="420"/>
    <line x1="120" y1="320" x2="1260" y2="320"/>
    <line x1="120" y1="220" x2="1260" y2="220"/>
    <line x1="120" y1="620" x2="120" y2="200"/>
  </g>

  <g fill="#9ca3af" font-family="monospace" font-size="15">
    <text x="78" y="626">0</text>
    <text x="70" y="526">4</text>
    <text x="70" y="426">8</text>
    <text x="62" y="326">12</text>
    <text x="62" y="226">16</text>
    <text x="120" y="654">14:05</text>
    <text x="340" y="654">14:08</text>
    <text x="560" y="654">14:11</text>
    <text x="780" y="654">14:14</text>
    <text x="1000" y="654">14:17</text>
    <text x="1200" y="654">14:20</text>
  </g>

  <polyline fill="none" stroke="#34d399" stroke-width="4" points="120,620 260,620 400,500 540,350 680,320 820,320 960,320 1100,380 1260,460"/>
  <polyline fill="none" stroke="#38bdf8" stroke-width="4" points="120,620 260,620 400,560 540,420 680,350 820,320 960,320 1100,380 1260,460"/>

  <g fill="#34d399" font-family="monospace" font-size="14">
    <rect x="920" y="88" width="16" height="16" fill="#34d399"/>
    <text x="946" y="101" fill="#d1fae5">DesiredTaskCount</text>
  </g>
  <g fill="#38bdf8" font-family="monospace" font-size="14">
    <rect x="1118" y="88" width="16" height="16" fill="#38bdf8"/>
    <text x="1144" y="101" fill="#bae6fd">RunningTaskCount</text>
  </g>

  <line x1="540" y1="176" x2="540" y2="620" stroke="#ef4444" stroke-dasharray="6,6"/>
  <text x="552" y="196" fill="#fca5a5" font-family="monospace" font-size="14">Target Breached</text>

  <rect x="84" y="680" width="1232" height="22" rx="4" fill="#111827"/>
  <text x="96" y="696" fill="#9ca3af" font-family="monospace" font-size="13">
    Preview only. Public live dashboard rollout scheduled for March 12, 2026.
  </text>
</svg>
